UNKNOWN
version=1
nRows=100
nColumns=5
inDegrees=no
endheader
time	r_elbow_flex	BIClong	BICshort	BRA
      0.00000000	      0.00000000	    602.40549046	    435.61406489	    988.34156755
      1.00000000	      1.31313131	    602.69957909	    435.69456998	    988.66408094
      2.00000000	      2.62626263	    603.02070006	    435.77808140	    988.94389604
      3.00000000	      3.93939394	    603.36935895	    435.86375325	    989.18112834
      4.00000000	      5.25252526	    603.74601053	    435.95066703	    989.37596805
      5.00000000	      6.56565657	    604.15104187	    436.03782445	    989.52859305
      6.00000000	      7.87878789	    604.58475526	    436.12416687	    989.63926477
      7.00000000	      9.19191920	    605.04735074	    436.20854493	    989.70823938
      8.00000000	     10.50505052	    605.53890873	    436.28973541	    989.73581827
      9.00000000	     11.81818183	    606.05937255	    436.36643598	    989.72232042
     10.00000000	     13.13131315	    606.60853134	    436.43726435	    989.66808551
     11.00000000	     14.44444446	    607.18600323	    436.50075762	    989.57347118
     12.00000000	     15.75757577	    607.79121914	    436.55537191	    989.43885675
     13.00000000	     17.07070709	    608.42340721	    436.59948227	    989.26461094
     14.00000000	     18.38383840	    609.08158204	    436.63138284	    989.05113516
     15.00000000	     19.69696972	    609.76451126	    436.64928743	    988.79881389
     16.00000000	     21.01010103	    610.47074233	    436.65133040	    988.50805952
     17.00000000	     22.32323235	    611.19855175	    436.63556788	    988.17929194
     18.00000000	     23.63636366	    611.94595486	    436.59997951	    987.81286166
     19.00000000	     24.94949498	    612.71069333	    436.54247047	    987.40920829
     20.00000000	     26.26262629	    613.49022840	    436.46087403	    987.24948419
     21.00000000	     27.57575761	    614.28173562	    436.35295450	    987.19285221
     22.00000000	     28.88888892	    615.08210153	    436.21641071	    987.08793798
     23.00000000	     30.20202023	    615.88792211	    436.04887986	    986.93555727
     24.00000000	     31.51515155	    616.69550319	    435.84794193	    986.73650645
     25.00000000	     32.82828286	    617.50086287	    435.61112453	    986.49294714
     26.00000000	     34.14141418	    618.29973581	    435.54639622	    986.20267877
     27.00000000	     35.45454549	    619.08757971	    435.48980043	    985.86785944
     28.00000000	     36.76767681	    619.85958368	    435.38643989	    985.48917163
     29.00000000	     38.08080812	    620.61067873	    435.23333925	    985.06726520
     30.00000000	     39.39393944	    621.33555013	    435.02752756	    984.60275726
     31.00000000	     40.70707075	    622.02865187	    434.76604599	    984.09623208
     32.00000000	     42.02020206	    622.68422291	    434.44595590	    983.54824110
     33.00000000	     43.33333338	    623.29630527	    434.06434715	    982.95930305
     34.00000000	     44.64646469	    623.85876393	    433.61834663	    982.32990404
     35.00000000	     45.95959601	    624.36530836	    433.10512698	    981.65091208
     36.00000000	     47.27272732	    624.80951554	    432.52191558	    980.90533042
     37.00000000	     48.58585864	    625.18485456	    431.86600358	    980.08916887
     38.00000000	     49.89898995	    625.48471236	    431.13475522	    979.19857764
     39.00000000	     51.21212127	    625.70242077	    430.32561710	    978.22969381
     40.00000000	     52.52525258	    625.83128452	    429.43612761	    977.17865251
     41.00000000	     53.83838390	    625.86461013	    428.46392641	    976.04159850
     42.00000000	     55.15151521	    625.79573554	    427.40676385	    974.81469812
     43.00000000	     56.46464652	    625.61806026	    426.26251042	    973.49415137
     44.00000000	     57.77777784	    625.32507594	    425.02916605	    972.07620442
     45.00000000	     59.09090915	    624.91039714	    423.70486937	    970.55716222
     46.00000000	     60.40404047	    624.36779215	    422.28790677	    968.93340142
     47.00000000	     61.71717178	    624.23492193	    420.77672128	    967.20138335
     48.00000000	     63.03030310	    624.00341457	    419.16992119	    965.35766720
     49.00000000	     64.34343441	    623.59951816	    417.46628838	    963.39892327
     50.00000000	     65.65656573	    623.01857599	    415.66478637	    961.32194620
     51.00000000	     66.96969704	    622.25627228	    413.76456795	    959.12366830
     52.00000000	     68.28282836	    621.30865380	    411.76498238	    956.80117277
     53.00000000	     69.59595967	    620.17215070	    409.66558223	    954.35170677
     54.00000000	     70.90909098	    618.84359635	    407.46612961	    951.77269444
     55.00000000	     72.22222230	    617.32024614	    405.16660197	    949.06174963
     56.00000000	     73.53535361	    615.59979510	    402.76719722	    946.21668839
     57.00000000	     74.84848493	    613.68039419	    400.26833835	    943.23554114
     58.00000000	     76.16161624	    611.56066521	    397.67067738	    940.11656444
     59.00000000	     77.47474756	    609.23971425	    394.97509859	    936.85825236
     60.00000000	     78.78787887	    606.71714350	    392.18272113	    933.45934731
     61.00000000	     80.10101019	    603.99306148	    389.29490085	    929.91885035
     62.00000000	     81.41414150	    601.06809150	    386.31323146	    926.23603087
     63.00000000	     82.72727282	    597.94337835	    383.23954489	    922.41043561
     64.00000000	     84.04040413	    594.62059315	    380.07591084	    918.44189694
     65.00000000	     85.35353544	    591.10193636	    376.82463565	    914.33054037
     66.00000000	     86.66666676	    587.39013887	    373.48826030	    910.07679128
     67.00000000	     87.97979807	    583.48846118	    370.06955770	    905.68138070
     68.00000000	     89.29292939	    579.40069067	    366.57153322	    901.14535024
     69.00000000	     90.60606070	    575.13113694	    362.99740318	    896.47005599
     70.00000000	     91.91919202	    570.68462529	    359.35061682	    891.65717153
     71.00000000	     93.23232333	    566.06648824	    355.63483156	    886.70868980
     72.00000000	     94.54545465	    561.28255531	    351.85391141	    881.62692398
     73.00000000	     95.85858596	    556.33914091	    348.01191970	    876.41450731
     74.00000000	     97.17171727	    551.24303059	    344.11311117	    871.07439177
     75.00000000	     98.48484859	    546.00146551	    340.16192334	    865.60984565
     76.00000000	     99.79797990	    540.62212533	    336.16296738	    860.02445010
     77.00000000	    101.11111122	    535.11310967	    332.12101828	    854.32209445
     78.00000000	    102.42424253	    529.48291795	    328.04100461	    848.50697055
     79.00000000	    103.73737385	    523.74042805	    323.92799774	    842.58356593
     80.00000000	    105.05050516	    517.89487364	    319.78720062	    836.55665594
     81.00000000	    106.36363648	    511.95582040	    315.62393624	    830.43129485
     82.00000000	    107.67676779	    505.93314117	    311.44363567	    824.21280593
     83.00000000	    108.98989911	    499.83699028	    307.25182594	    817.90677058
     84.00000000	    110.30303042	    493.67777699	    303.05411759	    811.51901654
     85.00000000	    111.61616173	    487.46613833	    298.85619217	    805.05560518
     86.00000000	    112.92929305	    481.21291138	    294.66378958	    798.52281805
     87.00000000	    114.24242436	    474.92911045	    290.48269533	    791.92714264
     88.00000000	    115.55555568	    468.62587564	    286.31872792	    785.27525741
     89.00000000	    116.86868699	    462.31448176	    282.17772619	    778.57401630
     90.00000000	    118.18181831	    456.00628227	    278.06553683	    771.83043263
     91.00000000	    119.49494962	    449.71268835	    273.98800207	    765.05166252
     92.00000000	    120.80808094	    443.44514048	    269.95094750	    758.24498797
     93.00000000	    122.12121225	    437.21508042	    265.96017031	    751.41779964
     94.00000000	    123.43434357	    431.03392354	    262.02142763	    744.57757936
     95.00000000	    124.74747488	    424.91303165	    258.14042534	    737.73188255
     96.00000000	    126.06060619	    418.86368649	    254.32280716	    730.88832059
     97.00000000	    127.37373751	    412.89706375	    250.57414411	    724.05454321
     98.00000000	    128.68686882	    407.02420802	    246.89992440	    717.23822097
     99.00000000	    130.00000014	    401.25600834	    243.30554363	    710.44702805
